# xmcd
#
# Track frame offsets: 
#        150
#        21344
#        32936
#        54517
#        71212
#        91292
#        110651
#
# Disc length: 1705 seconds
#
# Revision: 2
# Processed by: cddbd v1.5.2PL0 Copyright (c) Steve Scherf et al.
# Submitted via: ExactAudioCopy v1.0b6
#
DISCID=6106a707
DTITLE=Paul Young - The CBS Singles Collection 1982-1994 [CD 19 - It W
DTITLE=ill Be You)
DYEAR=2019
DGENRE=Pop
TTITLE0=It Will Be You
TTITLE1=Long Distance Love (Acoustic)
TTITLE2=Don't Let Me Be Lonely Tonight (Acoustic)
TTITLE3=Wherever I Lay My Hat (That's My Home) (Acoustic)
TTITLE4=Everything Must Change (Acoustic)
TTITLE5=Follow On (Acoustic)
TTITLE6=Love Has No Pride (Acoustic)
EXTD=
EXTT0=
EXTT1=
EXTT2=
EXTT3=
EXTT4=
EXTT5=
EXTT6=
PLAYORDER=
